<mxfile host="app.diagrams.net" modified="2023-07-07T21:16:19.270Z" agent="Mozilla/5.0 (Windows NT 10.0; Win64; x64) AppleWebKit/537.36 (KHTML, like Gecko) Chrome/114.0.0.0 Safari/537.36" etag="VBYnJ28h1Rl2u9BV8H0W" version="21.2.4" type="google">
  <diagram name="Page-1" id="8LsLuVAZLtypC_y-goP9">
    <mxGraphModel grid="1" page="1" gridSize="10" guides="1" tooltips="1" connect="1" arrows="1" fold="1" pageScale="1" pageWidth="850" pageHeight="1100" math="0" shadow="0">
      <root>
        <mxCell id="0" />
        <mxCell id="1" parent="0" />
        <mxCell id="ABK4wUut9tgNjS3H75WJ-1" value="" style="shape=cylinder3;whiteSpace=wrap;html=1;boundedLbl=1;backgroundOutline=1;size=15;fillColor=#e1d5e7;strokeColor=#9673a6;" vertex="1" parent="1">
          <mxGeometry x="150" y="26.41" width="150" height="1038.59" as="geometry" />
        </mxCell>
        <mxCell id="ABK4wUut9tgNjS3H75WJ-2" value="User" style="shape=umlActor;verticalLabelPosition=bottom;verticalAlign=top;html=1;outlineConnect=0;" vertex="1" parent="1">
          <mxGeometry x="-130" y="26.409999999999997" width="30" height="60" as="geometry" />
        </mxCell>
        <mxCell id="ABK4wUut9tgNjS3H75WJ-3" value="" style="html=1;shadow=0;dashed=0;align=center;verticalAlign=middle;shape=mxgraph.arrows2.arrow;dy=0.67;dx=20;notch=0;" vertex="1" parent="1">
          <mxGeometry x="-20" y="326.40999999999997" width="170" height="40" as="geometry" />
        </mxCell>
        <mxCell id="ABK4wUut9tgNjS3H75WJ-4" value="" style="html=1;shadow=0;dashed=0;align=center;verticalAlign=middle;shape=mxgraph.arrows2.arrow;dy=0.6;dx=40;flipH=1;notch=0;" vertex="1" parent="1">
          <mxGeometry x="-30" y="191.41" width="180" height="30" as="geometry" />
        </mxCell>
        <mxCell id="ABK4wUut9tgNjS3H75WJ-5" value="" style="rounded=1;whiteSpace=wrap;html=1;fillColor=#f8cecc;gradientColor=#ea6b66;strokeColor=#b85450;" vertex="1" parent="1">
          <mxGeometry x="-160" y="146.41" width="120" height="60" as="geometry" />
        </mxCell>
        <mxCell id="ABK4wUut9tgNjS3H75WJ-6" value="12/24 word Seed Phrase" style="text;strokeColor=none;align=center;fillColor=none;html=1;verticalAlign=middle;whiteSpace=wrap;rounded=0;" vertex="1" parent="1">
          <mxGeometry x="-130" y="161.41" width="70" height="30" as="geometry" />
        </mxCell>
        <mxCell id="ABK4wUut9tgNjS3H75WJ-7" value="" style="rounded=1;whiteSpace=wrap;html=1;fillColor=#b1ddf0;strokeColor=#10739e;" vertex="1" parent="1">
          <mxGeometry x="-160" y="321.40999999999997" width="120" height="60" as="geometry" />
        </mxCell>
        <mxCell id="ABK4wUut9tgNjS3H75WJ-8" value="Generated Encryption key" style="text;strokeColor=none;align=center;fillColor=none;html=1;verticalAlign=middle;whiteSpace=wrap;rounded=0;" vertex="1" parent="1">
          <mxGeometry x="-135" y="226.41" width="60" height="30" as="geometry" />
        </mxCell>
        <mxCell id="ABK4wUut9tgNjS3H75WJ-9" value="&lt;font color=&quot;#0000ff&quot;&gt;&lt;b&gt;Request for New Seed phrase &amp;amp; mgmt&lt;/b&gt;&lt;/font&gt;" style="text;strokeColor=none;align=center;fillColor=none;html=1;verticalAlign=middle;whiteSpace=wrap;rounded=0;" vertex="1" parent="1">
          <mxGeometry x="-40" y="21.409999999999997" width="100" height="30" as="geometry" />
        </mxCell>
        <mxCell id="ABK4wUut9tgNjS3H75WJ-11" value="" style="html=1;shadow=0;dashed=0;align=center;verticalAlign=middle;shape=mxgraph.arrows2.arrow;dy=0.67;dx=20;notch=0;" vertex="1" parent="1">
          <mxGeometry x="-20" y="63.91" width="170" height="40" as="geometry" />
        </mxCell>
        <mxCell id="ABK4wUut9tgNjS3H75WJ-12" value="" style="rounded=1;whiteSpace=wrap;html=1;fillColor=#d5e8d4;strokeColor=#82b366;gradientColor=#97d077;" vertex="1" parent="1">
          <mxGeometry x="-160" y="206.41" width="120" height="60" as="geometry" />
        </mxCell>
        <mxCell id="ABK4wUut9tgNjS3H75WJ-13" value="Generated Encryption key" style="text;strokeColor=none;align=center;fillColor=none;html=1;verticalAlign=middle;whiteSpace=wrap;rounded=0;" vertex="1" parent="1">
          <mxGeometry x="-135" y="221.41" width="60" height="30" as="geometry" />
        </mxCell>
        <mxCell id="ABK4wUut9tgNjS3H75WJ-14" value="Some combination of Personal Info like passport#, SSN, driver license&lt;br&gt;" style="text;strokeColor=none;align=center;fillColor=none;html=1;verticalAlign=middle;whiteSpace=wrap;rounded=0;" vertex="1" parent="1">
          <mxGeometry x="-160" y="336.40999999999997" width="110" height="30" as="geometry" />
        </mxCell>
        <mxCell id="ABK4wUut9tgNjS3H75WJ-15" value="" style="rounded=0;whiteSpace=wrap;html=1;fillColor=#647687;fontColor=#ffffff;strokeColor=#314354;" vertex="1" parent="1">
          <mxGeometry x="700.15" y="189.58000000000004" width="40" height="100" as="geometry" />
        </mxCell>
        <mxCell id="ABK4wUut9tgNjS3H75WJ-16" value="UTXO" style="text;strokeColor=none;align=center;fillColor=none;html=1;verticalAlign=middle;whiteSpace=wrap;rounded=0;fontColor=#FFFFFF;" vertex="1" parent="1">
          <mxGeometry x="690.15" y="188" width="60" height="50" as="geometry" />
        </mxCell>
        <mxCell id="ABK4wUut9tgNjS3H75WJ-17" value="Word1" style="text;strokeColor=none;align=center;fillColor=none;html=1;verticalAlign=middle;whiteSpace=wrap;rounded=0;fontColor=#FFFFFF;" vertex="1" parent="1">
          <mxGeometry x="690.15" y="230" width="60" height="49.58" as="geometry" />
        </mxCell>
        <mxCell id="ABK4wUut9tgNjS3H75WJ-28" value="" style="ellipse;whiteSpace=wrap;html=1;fillColor=#1A1A1A;" vertex="1" parent="1">
          <mxGeometry x="636.4" y="178" width="10" height="10" as="geometry" />
        </mxCell>
        <mxCell id="ABK4wUut9tgNjS3H75WJ-29" value="" style="ellipse;whiteSpace=wrap;html=1;fillColor=none;fontColor=#ffffff;strokeColor=#A50040;" vertex="1" parent="1">
          <mxGeometry x="630.15" y="175.5" width="22.5" height="15" as="geometry" />
        </mxCell>
        <mxCell id="ABK4wUut9tgNjS3H75WJ-37" value="" style="rounded=0;whiteSpace=wrap;html=1;fillColor=#647687;fontColor=#ffffff;strokeColor=#314354;" vertex="1" parent="1">
          <mxGeometry x="700.15" y="450.5" width="40" height="100" as="geometry" />
        </mxCell>
        <mxCell id="ABK4wUut9tgNjS3H75WJ-38" value="Word 24" style="text;strokeColor=none;align=center;fillColor=none;html=1;verticalAlign=middle;whiteSpace=wrap;rounded=0;fontColor=#FFFFFF;" vertex="1" parent="1">
          <mxGeometry x="700.7099999999999" y="490.5" width="40" height="55" as="geometry" />
        </mxCell>
        <mxCell id="ABK4wUut9tgNjS3H75WJ-39" value="UTXO" style="text;strokeColor=none;align=center;fillColor=none;html=1;verticalAlign=middle;whiteSpace=wrap;rounded=0;fontColor=#FFFFFF;" vertex="1" parent="1">
          <mxGeometry x="690.15" y="455.5" width="60" height="50" as="geometry" />
        </mxCell>
        <mxCell id="ABK4wUut9tgNjS3H75WJ-41" value="" style="shape=stencil(rVjLbhsxDPwaXwlJFEXpnKb/ESBOYzSNAyfp4+/LraGNRWUnLdCbvctZieSQHGnHV8/3N0/7XQrPL6fj1/2Pw+3L/Y4/7VI6PN7vT4cX+7Xj6x1f3R1P+y+n4+vj7fn/081iufz6dvy+fOHnGRep6gJK4df5QaAU/zz4fDZ/ODxemAvlyZy3zWOgEJ19CMA+Ua3OPiZgXygUZ88V2Dcq/vsN7Cdx/1y3j6TIXimFwd4cAvYcKbTBPsPws3h7oZaBfaU2xkepybZ9TlTGfC0ZBAtkW98BErECgO0ojYBMDaRMIslIuagwB5I7xdYcBMqARFIoywiwtANWSyV1gELctgEl+CpLjRSEtSTSkXfMlIHTJfvEcYFhLbbjkRk59Np4H1A7EVZAJgZcKlZrYx6yUi3bAA2dyyu5I+wumny1We4FbElzD2IHWGaQD1p6Oa4AgVxS9YlTXEDaermsACYFK9RIkUeAZRpUXE29xa0ATL5qXBq3ZJ/IIA9VfVirtQUEaBOgEgN6N2sqIzWahRU43ZR4TFyzPoJWqJ5LBlBQ0wZoYyu2TWYEaCQOwCQgSgZoY6ZbpgqmwwJwKxSKoKYN4BqZxU3wCsnloVIBNW2vxeWh4TwoFfEANOLMRc0TANR0E9+Mly2BijNAnJ1GmbYCSlNYUZSybwLmVUJOWyNzYc2wt9prn2kjH6KG9BF4QW8YJaPaVHGQrern9Eclql5rGKCgKE1z2nxA8sqI4MPKFBGXGlXxeUDyJ4YweS2w3y9LjIN6CRwu6uwy90FztTBNBZEQmVYReQGoKBHqtcNFHP4XIvTRf+F2xFOLXZUWyA6bi26QLjUE+oCNTd9pIvShBt/Al7kItmSTPLhRbc0KbGnRCiObTE8I0ifSD2CrejCJg1QcUxp9sCfIaY1e9pnURH3AFJXT64W76tqSrjwCRDvlt8RxmJQoOlea/HaHFNO6SAGZwG+zmkYCP/bXF3pdQWuSdaitJwKlCJy2mNQxcXbmQIdjmQ7fHGAbEPb0TjhKFnUnBuy8G0CzzJOwtAM4I4B6H2KD7XhJkwMoHNU5evJF7IOlqY79O1oBgShx9vok2rkJrRAouVZJChaw062jUoXCdbn08LcOBezHQu60Bj7RWACr6xhQy8TULwze7BmkbL61WrXN312KSb/Fev/zfipIL7wN85y8OdhM9PpCemt61zx4qSrwxBD8zFzPihvmThPmXm4b5m7v+NJjMrc8g8hMm0kUQAOdXLVEANJMgQywtU1pCnAMTyQIcFr8463uh+b24+0C+e7w8HC+f7587y+c7dH5spqvfwM=);lineShape=1;fillColor=#f0a30a;fontColor=#000000;strokeColor=#BD7000;" vertex="1" parent="1">
          <mxGeometry x="569.9954191967935" y="140.24897773898135" width="61.685142742653625" height="40.95752619365555" as="geometry" />
        </mxCell>
        <mxCell id="ABK4wUut9tgNjS3H75WJ-44" value="" style="shape=stencil(lVjbUhsxDP2avGp8laVnSv+DGULJlBImpLe/r7apQyxnD+Vts9FZWdLRzZt88/p497LdpPB6POy/bn/u7o+Pm/xpk9Lu+XF72B3taZNvN/nmYX/Yfjnsvz/fn36/3C2Sy9O3/Y/lC79OuEShLqAUfv97kamWv28+n+Sfds8X8kwxj/KJkq7Lx0AsIyBQYgAo1NIAiI1aAwClFkaAfQJoSIVSGwGRtAKAkI4ApSDr8rkQj04yrwEflUBFB/lMjOSZyhi0SByBvJLwIB+gR2um3Jx8ykCeSbOTDwFwKFz5PvAnM6Uycogi4qiFJzl/KrC35a7+Lb4ZEKhVqqM/I0ODG5M4A8wCELHWekDPACEBLmpCZTQhVxLAaQPIqMFYiBK5mVNHo4ulGTqSeq8aD3OCAJcGtVBAcZsyv0p/swZwRGWjOgBIoDgylVuvZ2uAMmpoEeaaxM6cM8BsAOSW5AGSsQYzcXSrtF4ArwOYeGSraGfXdYB6LmmA9NbmK7BGyoCtKp05FwABNqj6wGmCbDVAG+mtBeZ0DMEHQitlrEJcmeH3zlScXwUmhP3tIrf4ARhhgeDqAYhMduLqWk/Axd6cUqYzQRXFd7fFCMQm65ZtchMoZQZIwQdCsIbgNJhVyGjLORe50nvSGkDGJDW+CtJQepW4zAhEptq59r85Z109eACqG0YmVQ9gnNWavNEF1D4jArsj2bSKy4BOWa0o0jOAYdNajuQi3TodV40eO4S9aYitMtUZpYoAPLlV4fxj1JBJg+Kc/hhAxG8BKriPFpLs3dpA4KzxempUPG20yYaIAZV0tMEaZUBDXPFxWCYcNM9Y5RvJ11KflNcAaSQfSx+V1ybdeQASDHAdpdpYh+ZKq3yjBhviGLk1dydejIkKtg3zieNSqdityR+pRIrIhuiLQG5wgWvTEGcbBCozLfRJ4QzAo66tNM6GKFTRziR9Rb3YihNaymo/8Vtnh1sxn5ewcz70zf36ltg6cc7shh3OeBOr+z5qoUWmJg1n+5L8FhojBORpi4sZFrFso78LGsPkSewvGqLCEmNrpJszlqsAdFnS/DRmxEOTTEx+obGwoeFqVoA31+muIYde1K6b7K+HTD5Debe2Lt8HNIp++lxSGcgHnzYmX0CMQ69Vl/4BFdg2KfbyaKSfthKLCGL1LM+wms7nqcTgsiT4nmaEQ+U9+EHY5FF848TP3EeHNT586MLzfXl7eLtdfdg9PZ0uZy//97ex9up0k5tv/wA=);lineShape=1;fillColor=#6a00ff;fontColor=#ffffff;strokeColor=#3700CC;" vertex="1" parent="1">
          <mxGeometry x="653.8398395717735" y="173.1937788761112" width="48.37822035382942" height="38.35212823312054" as="geometry" />
        </mxCell>
        <mxCell id="ABK4wUut9tgNjS3H75WJ-45" value="" style="ellipse;whiteSpace=wrap;html=1;fillColor=#1A1A1A;" vertex="1" parent="1">
          <mxGeometry x="637.59" y="450.5" width="10" height="10" as="geometry" />
        </mxCell>
        <mxCell id="ABK4wUut9tgNjS3H75WJ-46" value="" style="ellipse;whiteSpace=wrap;html=1;fillColor=none;fontColor=#ffffff;strokeColor=#A50040;" vertex="1" parent="1">
          <mxGeometry x="631.34" y="448" width="22.5" height="15" as="geometry" />
        </mxCell>
        <mxCell id="ABK4wUut9tgNjS3H75WJ-47" value="" style="shape=stencil(rVjLbhsxDPwaXwlJFEXpnKb/ESBOYzSNAyfp4+/LraGNRWUnLdCbvctZieSQHGnHV8/3N0/7XQrPL6fj1/2Pw+3L/Y4/7VI6PN7vT4cX+7Xj6x1f3R1P+y+n4+vj7fn/081iufz6dvy+fOHnGRep6gJK4df5QaAU/zz4fDZ/ODxemAvlyZy3zWOgEJ19CMA+Ua3OPiZgXygUZ88V2Dcq/vsN7Cdx/1y3j6TIXimFwd4cAvYcKbTBPsPws3h7oZaBfaU2xkepybZ9TlTGfC0ZBAtkW98BErECgO0ojYBMDaRMIslIuagwB5I7xdYcBMqARFIoywiwtANWSyV1gELctgEl+CpLjRSEtSTSkXfMlIHTJfvEcYFhLbbjkRk59Np4H1A7EVZAJgZcKlZrYx6yUi3bAA2dyyu5I+wumny1We4FbElzD2IHWGaQD1p6Oa4AgVxS9YlTXEDaermsACYFK9RIkUeAZRpUXE29xa0ATL5qXBq3ZJ/IIA9VfVirtQUEaBOgEgN6N2sqIzWahRU43ZR4TFyzPoJWqJ5LBlBQ0wZoYyu2TWYEaCQOwCQgSgZoY6ZbpgqmwwJwKxSKoKYN4BqZxU3wCsnloVIBNW2vxeWh4TwoFfEANOLMRc0TANR0E9+Mly2BijNAnJ1GmbYCSlNYUZSybwLmVUJOWyNzYc2wt9prn2kjH6KG9BF4QW8YJaPaVHGQrern9Eclql5rGKCgKE1z2nxA8sqI4MPKFBGXGlXxeUDyJ4YweS2w3y9LjIN6CRwu6uwy90FztTBNBZEQmVYReQGoKBHqtcNFHP4XIvTRf+F2xFOLXZUWyA6bi26QLjUE+oCNTd9pIvShBt/Al7kItmSTPLhRbc0KbGnRCiObTE8I0ifSD2CrejCJg1QcUxp9sCfIaY1e9pnURH3AFJXT64W76tqSrjwCRDvlt8RxmJQoOlea/HaHFNO6SAGZwG+zmkYCP/bXF3pdQWuSdaitJwKlCJy2mNQxcXbmQIdjmQ7fHGAbEPb0TjhKFnUnBuy8G0CzzJOwtAM4I4B6H2KD7XhJkwMoHNU5evJF7IOlqY79O1oBgShx9vok2rkJrRAouVZJChaw062jUoXCdbn08LcOBezHQu60Bj7RWACr6xhQy8TULwze7BmkbL61WrXN312KSb/Fev/zfipIL7wN85y8OdhM9PpCemt61zx4qSrwxBD8zFzPihvmThPmXm4b5m7v+NJjMrc8g8hMm0kUQAOdXLVEANJMgQywtU1pCnAMTyQIcFr8463uh+b24+0C+e7w8HC+f7587y+c7dH5spqvfwM=);lineShape=1;fillColor=#f0a30a;fontColor=#000000;strokeColor=#BD7000;" vertex="1" parent="1">
          <mxGeometry x="570.1454191967935" y="409.53897773898143" width="61.685142742653625" height="40.95752619365555" as="geometry" />
        </mxCell>
        <mxCell id="ABK4wUut9tgNjS3H75WJ-48" value="" style="shape=stencil(lVjbUhsxDP2avGp8laVnSv+DGULJlBImpLe/r7apQyxnD+Vts9FZWdLRzZt88/p497LdpPB6POy/bn/u7o+Pm/xpk9Lu+XF72B3taZNvN/nmYX/Yfjnsvz/fn36/3C2Sy9O3/Y/lC79OuEShLqAUfv97kamWv28+n+Sfds8X8kwxj/KJkq7Lx0AsIyBQYgAo1NIAiI1aAwClFkaAfQJoSIVSGwGRtAKAkI4ApSDr8rkQj04yrwEflUBFB/lMjOSZyhi0SByBvJLwIB+gR2um3Jx8ykCeSbOTDwFwKFz5PvAnM6Uycogi4qiFJzl/KrC35a7+Lb4ZEKhVqqM/I0ODG5M4A8wCELHWekDPACEBLmpCZTQhVxLAaQPIqMFYiBK5mVNHo4ulGTqSeq8aD3OCAJcGtVBAcZsyv0p/swZwRGWjOgBIoDgylVuvZ2uAMmpoEeaaxM6cM8BsAOSW5AGSsQYzcXSrtF4ArwOYeGSraGfXdYB6LmmA9NbmK7BGyoCtKp05FwABNqj6wGmCbDVAG+mtBeZ0DMEHQitlrEJcmeH3zlScXwUmhP3tIrf4ARhhgeDqAYhMduLqWk/Axd6cUqYzQRXFd7fFCMQm65ZtchMoZQZIwQdCsIbgNJhVyGjLORe50nvSGkDGJDW+CtJQepW4zAhEptq59r85Z109eACqG0YmVQ9gnNWavNEF1D4jArsj2bSKy4BOWa0o0jOAYdNajuQi3TodV40eO4S9aYitMtUZpYoAPLlV4fxj1JBJg+Kc/hhAxG8BKriPFpLs3dpA4KzxempUPG20yYaIAZV0tMEaZUBDXPFxWCYcNM9Y5RvJ11KflNcAaSQfSx+V1ybdeQASDHAdpdpYh+ZKq3yjBhviGLk1dydejIkKtg3zieNSqdityR+pRIrIhuiLQG5wgWvTEGcbBCozLfRJ4QzAo66tNM6GKFTRziR9Rb3YihNaymo/8Vtnh1sxn5ewcz70zf36ltg6cc7shh3OeBOr+z5qoUWmJg1n+5L8FhojBORpi4sZFrFso78LGsPkSewvGqLCEmNrpJszlqsAdFnS/DRmxEOTTEx+obGwoeFqVoA31+muIYde1K6b7K+HTD5Debe2Lt8HNIp++lxSGcgHnzYmX0CMQ69Vl/4BFdg2KfbyaKSfthKLCGL1LM+wms7nqcTgsiT4nmaEQ+U9+EHY5FF848TP3EeHNT586MLzfXl7eLtdfdg9PZ0uZy//97ex9up0k5tv/wA=);lineShape=1;fillColor=#6a00ff;fontColor=#ffffff;strokeColor=#3700CC;" vertex="1" parent="1">
          <mxGeometry x="651.7698395717734" y="445.50377887611126" width="48.37822035382942" height="38.35212823312054" as="geometry" />
        </mxCell>
        <mxCell id="ABK4wUut9tgNjS3H75WJ-51" value="" style="shape=stencil(lVbLUsMwDPyaXDWWbPlxhvIfzNDSDKVl2vL6e2QySSq3EcPNcbKxV7sru/N3p+3j27ojdzofDy/rz/7pvO38fUfU77frY3+WUedXnb/bHI7r5+Phff80PL891i/r6PXwUf/wNeByASwVRe57mPERAv3OPAyAXb+/AJQIFBQgyIw3AAVSVgBOkJIJCKwAsUAOBoCBNIeMgMYKWTZAClAccF4GpASsSZcEriwDIkPWK6Bz4Nwygn1bJqmDM4QIBLEBBCBeBngPsSlTBDRYk5RJs04M0agrMYSklfOQ0VwBnfYGQrY4ULtCQHCGN+pr1P4mYEsHHL02AuomjRVmihOAgQ3ScxEvVkiGmapMTUbFLFbkJiNMVaLR8UuRc9qubAt34eZJajaVq4HRdq2higZAIqnLVGNrsK6hjzoQDN6QurYVrVxtPcaW+CoQc3O77b4r5YrdLKX5el2luUEvAsp/ABTBaW9kEc4gjbGtUnaAltJA2hlJQmvI4Ns+Jolyxv/FF5oASyc0CFw5VXqC2ZTAaRt5NPlGiDo7hKbt0I/lmM4GGk+L2xuiNp1iIoOA7Lfo5NhN9fok+fOoYmy+T0oAGcwXjk2/2w33lcv37QVFpobLjV/9AA==);lineShape=1;" vertex="1" parent="1">
          <mxGeometry x="716.7012635264281" y="306.04952018479605" width="3.2230755116520413" height="3.224848179439846" as="geometry" />
        </mxCell>
        <mxCell id="ABK4wUut9tgNjS3H75WJ-52" value="" style="shape=stencil(lVbLUsMwDPyaXDWWbPlxhvIfzNDSDKVl2vL6e2QySSq3EcPNcbKxV7sru/N3p+3j27ojdzofDy/rz/7pvO38fUfU77frY3+WUedXnb/bHI7r5+Phff80PL891i/r6PXwUf/wNeByASwVRe57mPERAv3OPAyAXb+/AJQIFBQgyIw3AAVSVgBOkJIJCKwAsUAOBoCBNIeMgMYKWTZAClAccF4GpASsSZcEriwDIkPWK6Bz4Nwygn1bJqmDM4QIBLEBBCBeBngPsSlTBDRYk5RJs04M0agrMYSklfOQ0VwBnfYGQrY4ULtCQHCGN+pr1P4mYEsHHL02AuomjRVmihOAgQ3ScxEvVkiGmapMTUbFLFbkJiNMVaLR8UuRc9qubAt34eZJajaVq4HRdq2higZAIqnLVGNrsK6hjzoQDN6QurYVrVxtPcaW+CoQc3O77b4r5YrdLKX5el2luUEvAsp/ABTBaW9kEc4gjbGtUnaAltJA2hlJQmvI4Ns+Jolyxv/FF5oASyc0CFw5VXqC2ZTAaRt5NPlGiDo7hKbt0I/lmM4GGk+L2xuiNp1iIoOA7Lfo5NhN9fok+fOoYmy+T0oAGcwXjk2/2w33lcv37QVFpobLjV/9AA==);lineShape=1;" vertex="1" parent="1">
          <mxGeometry x="717.7012635264281" y="314.04952018479605" width="3.2230755116520413" height="3.224848179439846" as="geometry" />
        </mxCell>
        <mxCell id="ABK4wUut9tgNjS3H75WJ-53" value="" style="shape=stencil(lVbLUsMwDPyaXDWWbPlxhvIfzNDSDKVl2vL6e2QySSq3EcPNcbKxV7sru/N3p+3j27ojdzofDy/rz/7pvO38fUfU77frY3+WUedXnb/bHI7r5+Phff80PL891i/r6PXwUf/wNeByASwVRe57mPERAv3OPAyAXb+/AJQIFBQgyIw3AAVSVgBOkJIJCKwAsUAOBoCBNIeMgMYKWTZAClAccF4GpASsSZcEriwDIkPWK6Bz4Nwygn1bJqmDM4QIBLEBBCBeBngPsSlTBDRYk5RJs04M0agrMYSklfOQ0VwBnfYGQrY4ULtCQHCGN+pr1P4mYEsHHL02AuomjRVmihOAgQ3ScxEvVkiGmapMTUbFLFbkJiNMVaLR8UuRc9qubAt34eZJajaVq4HRdq2higZAIqnLVGNrsK6hjzoQDN6QurYVrVxtPcaW+CoQc3O77b4r5YrdLKX5el2luUEvAsp/ABTBaW9kEc4gjbGtUnaAltJA2hlJQmvI4Ns+Jolyxv/FF5oASyc0CFw5VXqC2ZTAaRt5NPlGiDo7hKbt0I/lmM4GGk+L2xuiNp1iIoOA7Lfo5NhN9fok+fOoYmy+T0oAGcwXjk2/2w33lcv37QVFpobLjV/9AA==);lineShape=1;" vertex="1" parent="1">
          <mxGeometry x="717.7012635264281" y="314.04952018479605" width="3.2230755116520413" height="3.224848179439846" as="geometry" />
        </mxCell>
        <mxCell id="ABK4wUut9tgNjS3H75WJ-55" value="" style="shape=stencil(lVbLUsMwDPyaXDWWbPlxhvIfzNDSDKVl2vL6e2QySSq3EcPNcbKxV7sru/N3p+3j27ojdzofDy/rz/7pvO38fUfU77frY3+WUedXnb/bHI7r5+Phff80PL891i/r6PXwUf/wNeByASwVRe57mPERAv3OPAyAXb+/AJQIFBQgyIw3AAVSVgBOkJIJCKwAsUAOBoCBNIeMgMYKWTZAClAccF4GpASsSZcEriwDIkPWK6Bz4Nwygn1bJqmDM4QIBLEBBCBeBngPsSlTBDRYk5RJs04M0agrMYSklfOQ0VwBnfYGQrY4ULtCQHCGN+pr1P4mYEsHHL02AuomjRVmihOAgQ3ScxEvVkiGmapMTUbFLFbkJiNMVaLR8UuRc9qubAt34eZJajaVq4HRdq2higZAIqnLVGNrsK6hjzoQDN6QurYVrVxtPcaW+CoQc3O77b4r5YrdLKX5el2luUEvAsp/ABTBaW9kEc4gjbGtUnaAltJA2hlJQmvI4Ns+Jolyxv/FF5oASyc0CFw5VXqC2ZTAaRt5NPlGiDo7hKbt0I/lmM4GGk+L2xuiNp1iIoOA7Lfo5NhN9fok+fOoYmy+T0oAGcwXjk2/2w33lcv37QVFpobLjV/9AA==);lineShape=1;" vertex="1" parent="1">
          <mxGeometry x="716.7012635264281" y="322.04952018479605" width="3.2230755116520413" height="3.224848179439846" as="geometry" />
        </mxCell>
        <mxCell id="ABK4wUut9tgNjS3H75WJ-56" value="" style="shape=stencil(lVbLUsMwDPyaXDWWbPlxhvIfzNDSDKVl2vL6e2QySSq3EcPNcbKxV7sru/N3p+3j27ojdzofDy/rz/7pvO38fUfU77frY3+WUedXnb/bHI7r5+Phff80PL891i/r6PXwUf/wNeByASwVRe57mPERAv3OPAyAXb+/AJQIFBQgyIw3AAVSVgBOkJIJCKwAsUAOBoCBNIeMgMYKWTZAClAccF4GpASsSZcEriwDIkPWK6Bz4Nwygn1bJqmDM4QIBLEBBCBeBngPsSlTBDRYk5RJs04M0agrMYSklfOQ0VwBnfYGQrY4ULtCQHCGN+pr1P4mYEsHHL02AuomjRVmihOAgQ3ScxEvVkiGmapMTUbFLFbkJiNMVaLR8UuRc9qubAt34eZJajaVq4HRdq2higZAIqnLVGNrsK6hjzoQDN6QurYVrVxtPcaW+CoQc3O77b4r5YrdLKX5el2luUEvAsp/ABTBaW9kEc4gjbGtUnaAltJA2hlJQmvI4Ns+Jolyxv/FF5oASyc0CFw5VXqC2ZTAaRt5NPlGiDo7hKbt0I/lmM4GGk+L2xuiNp1iIoOA7Lfo5NhN9fok+fOoYmy+T0oAGcwXjk2/2w33lcv37QVFpobLjV/9AA==);lineShape=1;" vertex="1" parent="1">
          <mxGeometry x="716.7012635264281" y="331.04952018479605" width="3.2230755116520413" height="3.224848179439846" as="geometry" />
        </mxCell>
        <mxCell id="ABK4wUut9tgNjS3H75WJ-57" value="" style="shape=stencil(lVbLUsMwDPyaXDWWbPlxhvIfzNDSDKVl2vL6e2QySSq3EcPNcbKxV7sru/N3p+3j27ojdzofDy/rz/7pvO38fUfU77frY3+WUedXnb/bHI7r5+Phff80PL891i/r6PXwUf/wNeByASwVRe57mPERAv3OPAyAXb+/AJQIFBQgyIw3AAVSVgBOkJIJCKwAsUAOBoCBNIeMgMYKWTZAClAccF4GpASsSZcEriwDIkPWK6Bz4Nwygn1bJqmDM4QIBLEBBCBeBngPsSlTBDRYk5RJs04M0agrMYSklfOQ0VwBnfYGQrY4ULtCQHCGN+pr1P4mYEsHHL02AuomjRVmihOAgQ3ScxEvVkiGmapMTUbFLFbkJiNMVaLR8UuRc9qubAt34eZJajaVq4HRdq2higZAIqnLVGNrsK6hjzoQDN6QurYVrVxtPcaW+CoQc3O77b4r5YrdLKX5el2luUEvAsp/ABTBaW9kEc4gjbGtUnaAltJA2hlJQmvI4Ns+Jolyxv/FF5oASyc0CFw5VXqC2ZTAaRt5NPlGiDo7hKbt0I/lmM4GGk+L2xuiNp1iIoOA7Lfo5NhN9fok+fOoYmy+T0oAGcwXjk2/2w33lcv37QVFpobLjV/9AA==);lineShape=1;" vertex="1" parent="1">
          <mxGeometry x="716.7012635264281" y="347.04952018479605" width="3.2230755116520413" height="3.224848179439846" as="geometry" />
        </mxCell>
        <mxCell id="ABK4wUut9tgNjS3H75WJ-58" value="" style="shape=stencil(lVbLUsMwDPyaXDWWbPlxhvIfzNDSDKVl2vL6e2QySSq3EcPNcbKxV7sru/N3p+3j27ojdzofDy/rz/7pvO38fUfU77frY3+WUedXnb/bHI7r5+Phff80PL891i/r6PXwUf/wNeByASwVRe57mPERAv3OPAyAXb+/AJQIFBQgyIw3AAVSVgBOkJIJCKwAsUAOBoCBNIeMgMYKWTZAClAccF4GpASsSZcEriwDIkPWK6Bz4Nwygn1bJqmDM4QIBLEBBCBeBngPsSlTBDRYk5RJs04M0agrMYSklfOQ0VwBnfYGQrY4ULtCQHCGN+pr1P4mYEsHHL02AuomjRVmihOAgQ3ScxEvVkiGmapMTUbFLFbkJiNMVaLR8UuRc9qubAt34eZJajaVq4HRdq2higZAIqnLVGNrsK6hjzoQDN6QurYVrVxtPcaW+CoQc3O77b4r5YrdLKX5el2luUEvAsp/ABTBaW9kEc4gjbGtUnaAltJA2hlJQmvI4Ns+Jolyxv/FF5oASyc0CFw5VXqC2ZTAaRt5NPlGiDo7hKbt0I/lmM4GGk+L2xuiNp1iIoOA7Lfo5NhN9fok+fOoYmy+T0oAGcwXjk2/2w33lcv37QVFpobLjV/9AA==);lineShape=1;" vertex="1" parent="1">
          <mxGeometry x="716.7012635264281" y="361.04952018479617" width="3.2230755116520413" height="3.224848179439732" as="geometry" />
        </mxCell>
        <mxCell id="ABK4wUut9tgNjS3H75WJ-59" value="" style="shape=stencil(lVbLUsMwDPyaXDWWbPlxhvIfzNDSDKVl2vL6e2QySSq3EcPNcbKxV7sru/N3p+3j27ojdzofDy/rz/7pvO38fUfU77frY3+WUedXnb/bHI7r5+Phff80PL891i/r6PXwUf/wNeByASwVRe57mPERAv3OPAyAXb+/AJQIFBQgyIw3AAVSVgBOkJIJCKwAsUAOBoCBNIeMgMYKWTZAClAccF4GpASsSZcEriwDIkPWK6Bz4Nwygn1bJqmDM4QIBLEBBCBeBngPsSlTBDRYk5RJs04M0agrMYSklfOQ0VwBnfYGQrY4ULtCQHCGN+pr1P4mYEsHHL02AuomjRVmihOAgQ3ScxEvVkiGmapMTUbFLFbkJiNMVaLR8UuRc9qubAt34eZJajaVq4HRdq2higZAIqnLVGNrsK6hjzoQDN6QurYVrVxtPcaW+CoQc3O77b4r5YrdLKX5el2luUEvAsp/ABTBaW9kEc4gjbGtUnaAltJA2hlJQmvI4Ns+Jolyxv/FF5oASyc0CFw5VXqC2ZTAaRt5NPlGiDo7hKbt0I/lmM4GGk+L2xuiNp1iIoOA7Lfo5NhN9fok+fOoYmy+T0oAGcwXjk2/2w33lcv37QVFpobLjV/9AA==);lineShape=1;" vertex="1" parent="1">
          <mxGeometry x="716.7012635264281" y="369.04952018479617" width="3.2230755116520413" height="3.224848179439732" as="geometry" />
        </mxCell>
        <mxCell id="ABK4wUut9tgNjS3H75WJ-60" value="" style="shape=stencil(lVbLUsMwDPyaXDWWbPlxhvIfzNDSDKVl2vL6e2QySSq3EcPNcbKxV7sru/N3p+3j27ojdzofDy/rz/7pvO38fUfU77frY3+WUedXnb/bHI7r5+Phff80PL891i/r6PXwUf/wNeByASwVRe57mPERAv3OPAyAXb+/AJQIFBQgyIw3AAVSVgBOkJIJCKwAsUAOBoCBNIeMgMYKWTZAClAccF4GpASsSZcEriwDIkPWK6Bz4Nwygn1bJqmDM4QIBLEBBCBeBngPsSlTBDRYk5RJs04M0agrMYSklfOQ0VwBnfYGQrY4ULtCQHCGN+pr1P4mYEsHHL02AuomjRVmihOAgQ3ScxEvVkiGmapMTUbFLFbkJiNMVaLR8UuRc9qubAt34eZJajaVq4HRdq2higZAIqnLVGNrsK6hjzoQDN6QurYVrVxtPcaW+CoQc3O77b4r5YrdLKX5el2luUEvAsp/ABTBaW9kEc4gjbGtUnaAltJA2hlJQmvI4Ns+Jolyxv/FF5oASyc0CFw5VXqC2ZTAaRt5NPlGiDo7hKbt0I/lmM4GGk+L2xuiNp1iIoOA7Lfo5NhN9fok+fOoYmy+T0oAGcwXjk2/2w33lcv37QVFpobLjV/9AA==);lineShape=1;" vertex="1" parent="1">
          <mxGeometry x="716.7012635264281" y="380.04952018479617" width="3.2230755116520413" height="3.224848179439732" as="geometry" />
        </mxCell>
        <mxCell id="ABK4wUut9tgNjS3H75WJ-61" value="" style="shape=stencil(lVbLUsMwDPyaXDWWbPlxhvIfzNDSDKVl2vL6e2QySSq3EcPNcbKxV7sru/N3p+3j27ojdzofDy/rz/7pvO38fUfU77frY3+WUedXnb/bHI7r5+Phff80PL891i/r6PXwUf/wNeByASwVRe57mPERAv3OPAyAXb+/AJQIFBQgyIw3AAVSVgBOkJIJCKwAsUAOBoCBNIeMgMYKWTZAClAccF4GpASsSZcEriwDIkPWK6Bz4Nwygn1bJqmDM4QIBLEBBCBeBngPsSlTBDRYk5RJs04M0agrMYSklfOQ0VwBnfYGQrY4ULtCQHCGN+pr1P4mYEsHHL02AuomjRVmihOAgQ3ScxEvVkiGmapMTUbFLFbkJiNMVaLR8UuRc9qubAt34eZJajaVq4HRdq2higZAIqnLVGNrsK6hjzoQDN6QurYVrVxtPcaW+CoQc3O77b4r5YrdLKX5el2luUEvAsp/ABTBaW9kEc4gjbGtUnaAltJA2hlJQmvI4Ns+Jolyxv/FF5oASyc0CFw5VXqC2ZTAaRt5NPlGiDo7hKbt0I/lmM4GGk+L2xuiNp1iIoOA7Lfo5NhN9fok+fOoYmy+T0oAGcwXjk2/2w33lcv37QVFpobLjV/9AA==);lineShape=1;" vertex="1" parent="1">
          <mxGeometry x="715.7012635264281" y="387.04952018479617" width="3.2230755116520413" height="3.224848179439732" as="geometry" />
        </mxCell>
        <mxCell id="ABK4wUut9tgNjS3H75WJ-62" value="" style="shape=stencil(lVbLUsMwDPyaXDWWbPlxhvIfzNDSDKVl2vL6e2QySSq3EcPNcbKxV7sru/N3p+3j27ojdzofDy/rz/7pvO38fUfU77frY3+WUedXnb/bHI7r5+Phff80PL891i/r6PXwUf/wNeByASwVRe57mPERAv3OPAyAXb+/AJQIFBQgyIw3AAVSVgBOkJIJCKwAsUAOBoCBNIeMgMYKWTZAClAccF4GpASsSZcEriwDIkPWK6Bz4Nwygn1bJqmDM4QIBLEBBCBeBngPsSlTBDRYk5RJs04M0agrMYSklfOQ0VwBnfYGQrY4ULtCQHCGN+pr1P4mYEsHHL02AuomjRVmihOAgQ3ScxEvVkiGmapMTUbFLFbkJiNMVaLR8UuRc9qubAt34eZJajaVq4HRdq2higZAIqnLVGNrsK6hjzoQDN6QurYVrVxtPcaW+CoQc3O77b4r5YrdLKX5el2luUEvAsp/ABTBaW9kEc4gjbGtUnaAltJA2hlJQmvI4Ns+Jolyxv/FF5oASyc0CFw5VXqC2ZTAaRt5NPlGiDo7hKbt0I/lmM4GGk+L2xuiNp1iIoOA7Lfo5NhN9fok+fOoYmy+T0oAGcwXjk2/2w33lcv37QVFpobLjV/9AA==);lineShape=1;" vertex="1" parent="1">
          <mxGeometry x="715.7012635264281" y="400.04952018479617" width="3.2230755116520413" height="3.224848179439732" as="geometry" />
        </mxCell>
        <mxCell id="ABK4wUut9tgNjS3H75WJ-63" value="" style="shape=stencil(lVbLUsMwDPyaXDWWbPlxhvIfzNDSDKVl2vL6e2QySSq3EcPNcbKxV7sru/N3p+3j27ojdzofDy/rz/7pvO38fUfU77frY3+WUedXnb/bHI7r5+Phff80PL891i/r6PXwUf/wNeByASwVRe57mPERAv3OPAyAXb+/AJQIFBQgyIw3AAVSVgBOkJIJCKwAsUAOBoCBNIeMgMYKWTZAClAccF4GpASsSZcEriwDIkPWK6Bz4Nwygn1bJqmDM4QIBLEBBCBeBngPsSlTBDRYk5RJs04M0agrMYSklfOQ0VwBnfYGQrY4ULtCQHCGN+pr1P4mYEsHHL02AuomjRVmihOAgQ3ScxEvVkiGmapMTUbFLFbkJiNMVaLR8UuRc9qubAt34eZJajaVq4HRdq2higZAIqnLVGNrsK6hjzoQDN6QurYVrVxtPcaW+CoQc3O77b4r5YrdLKX5el2luUEvAsp/ABTBaW9kEc4gjbGtUnaAltJA2hlJQmvI4Ns+Jolyxv/FF5oASyc0CFw5VXqC2ZTAaRt5NPlGiDo7hKbt0I/lmM4GGk+L2xuiNp1iIoOA7Lfo5NhN9fok+fOoYmy+T0oAGcwXjk2/2w33lcv37QVFpobLjV/9AA==);lineShape=1;" vertex="1" parent="1">
          <mxGeometry x="718.7012635264281" y="412.04952018479617" width="3.2230755116520413" height="3.224848179439732" as="geometry" />
        </mxCell>
        <mxCell id="ABK4wUut9tgNjS3H75WJ-64" value="" style="shape=stencil(lVbLUsMwDPyaXDWWbPlxhvIfzNDSDKVl2vL6e2QySSq3EcPNcbKxV7sru/N3p+3j27ojdzofDy/rz/7pvO38fUfU77frY3+WUedXnb/bHI7r5+Phff80PL891i/r6PXwUf/wNeByASwVRe57mPERAv3OPAyAXb+/AJQIFBQgyIw3AAVSVgBOkJIJCKwAsUAOBoCBNIeMgMYKWTZAClAccF4GpASsSZcEriwDIkPWK6Bz4Nwygn1bJqmDM4QIBLEBBCBeBngPsSlTBDRYk5RJs04M0agrMYSklfOQ0VwBnfYGQrY4ULtCQHCGN+pr1P4mYEsHHL02AuomjRVmihOAgQ3ScxEvVkiGmapMTUbFLFbkJiNMVaLR8UuRc9qubAt34eZJajaVq4HRdq2higZAIqnLVGNrsK6hjzoQDN6QurYVrVxtPcaW+CoQc3O77b4r5YrdLKX5el2luUEvAsp/ABTBaW9kEc4gjbGtUnaAltJA2hlJQmvI4Ns+Jolyxv/FF5oASyc0CFw5VXqC2ZTAaRt5NPlGiDo7hKbt0I/lmM4GGk+L2xuiNp1iIoOA7Lfo5NhN9fok+fOoYmy+T0oAGcwXjk2/2w33lcv37QVFpobLjV/9AA==);lineShape=1;" vertex="1" parent="1">
          <mxGeometry x="718.7012635264281" y="423.04952018479617" width="3.2230755116520413" height="3.224848179439732" as="geometry" />
        </mxCell>
        <mxCell id="ABK4wUut9tgNjS3H75WJ-65" value="" style="shape=stencil(lVbLUsMwDPyaXDWWbPlxhvIfzNDSDKVl2vL6e2QySSq3EcPNcbKxV7sru/N3p+3j27ojdzofDy/rz/7pvO38fUfU77frY3+WUedXnb/bHI7r5+Phff80PL891i/r6PXwUf/wNeByASwVRe57mPERAv3OPAyAXb+/AJQIFBQgyIw3AAVSVgBOkJIJCKwAsUAOBoCBNIeMgMYKWTZAClAccF4GpASsSZcEriwDIkPWK6Bz4Nwygn1bJqmDM4QIBLEBBCBeBngPsSlTBDRYk5RJs04M0agrMYSklfOQ0VwBnfYGQrY4ULtCQHCGN+pr1P4mYEsHHL02AuomjRVmihOAgQ3ScxEvVkiGmapMTUbFLFbkJiNMVaLR8UuRc9qubAt34eZJajaVq4HRdq2higZAIqnLVGNrsK6hjzoQDN6QurYVrVxtPcaW+CoQc3O77b4r5YrdLKX5el2luUEvAsp/ABTBaW9kEc4gjbGtUnaAltJA2hlJQmvI4Ns+Jolyxv/FF5oASyc0CFw5VXqC2ZTAaRt5NPlGiDo7hKbt0I/lmM4GGk+L2xuiNp1iIoOA7Lfo5NhN9fok+fOoYmy+T0oAGcwXjk2/2w33lcv37QVFpobLjV/9AA==);lineShape=1;" vertex="1" parent="1">
          <mxGeometry x="717.7012635264281" y="436.04952018479617" width="3.2230755116520413" height="3.224848179439732" as="geometry" />
        </mxCell>
        <mxCell id="ABK4wUut9tgNjS3H75WJ-81" value="" style="shape=process;whiteSpace=wrap;html=1;backgroundOutline=1;" vertex="1" parent="1">
          <mxGeometry x="450" y="97" width="120" height="410" as="geometry" />
        </mxCell>
        <mxCell id="ABK4wUut9tgNjS3H75WJ-82" value="Web UI" style="text;strokeColor=none;align=center;fillColor=none;html=1;verticalAlign=middle;whiteSpace=wrap;rounded=0;" vertex="1" parent="1">
          <mxGeometry x="195" y="243.25" width="60" height="120" as="geometry" />
        </mxCell>
        <mxCell id="ABK4wUut9tgNjS3H75WJ-83" value="Cardano Blockchain Smart Contract. Address also has Encrypted key and personal info and counter for each workd" style="text;strokeColor=none;align=center;fillColor=none;html=1;verticalAlign=middle;whiteSpace=wrap;rounded=0;" vertex="1" parent="1">
          <mxGeometry x="480" y="244.26999999999998" width="60" height="142.73" as="geometry" />
        </mxCell>
        <mxCell id="ABK4wUut9tgNjS3H75WJ-84" value="" style="html=1;shadow=0;dashed=0;align=center;verticalAlign=middle;shape=mxgraph.arrows2.arrow;dy=0;dx=30;notch=30;" vertex="1" parent="1">
          <mxGeometry x="290" y="249.26999999999998" width="160" height="60" as="geometry" />
        </mxCell>
        <mxCell id="ABK4wUut9tgNjS3H75WJ-85" value="Deploys Smart Contract on Cardano BlockChain" style="text;strokeColor=none;align=center;fillColor=none;html=1;verticalAlign=middle;whiteSpace=wrap;rounded=0;" vertex="1" parent="1">
          <mxGeometry x="305" y="239.77999999999997" width="110" height="82.27" as="geometry" />
        </mxCell>
        <mxCell id="ABK4wUut9tgNjS3H75WJ-86" value="User" style="shape=umlActor;verticalLabelPosition=bottom;verticalAlign=top;html=1;outlineConnect=0;" vertex="1" parent="1">
          <mxGeometry x="-160" y="520.5" width="30" height="60" as="geometry" />
        </mxCell>
        <mxCell id="ABK4wUut9tgNjS3H75WJ-87" value="" style="html=1;shadow=0;dashed=0;align=center;verticalAlign=middle;shape=mxgraph.arrows2.arrow;dy=0.67;dx=20;notch=0;" vertex="1" parent="1">
          <mxGeometry x="-20" y="530.5" width="170" height="40" as="geometry" />
        </mxCell>
        <mxCell id="ABK4wUut9tgNjS3H75WJ-88" value="&lt;b&gt;&lt;font color=&quot;#3333ff&quot; style=&quot;font-size: 14px;&quot;&gt;User forgets Seed phrase requests to recover&lt;/font&gt;&lt;/b&gt;" style="text;strokeColor=none;align=center;fillColor=none;html=1;verticalAlign=middle;whiteSpace=wrap;rounded=0;" vertex="1" parent="1">
          <mxGeometry x="-40" y="490.5" width="100" height="30" as="geometry" />
        </mxCell>
        <mxCell id="ABK4wUut9tgNjS3H75WJ-90" value="" style="rounded=1;whiteSpace=wrap;html=1;fillColor=#d5e8d4;strokeColor=#82b366;gradientColor=#97d077;" vertex="1" parent="1">
          <mxGeometry x="-60" y="570.5" width="180" height="60" as="geometry" />
        </mxCell>
        <mxCell id="ABK4wUut9tgNjS3H75WJ-94" value="Supplies Generated Encryption key" style="text;strokeColor=none;align=center;fillColor=none;html=1;verticalAlign=middle;whiteSpace=wrap;rounded=0;" vertex="1" parent="1">
          <mxGeometry x="-50" y="585.5" width="120" height="30" as="geometry" />
        </mxCell>
        <mxCell id="ABK4wUut9tgNjS3H75WJ-95" value="" style="rounded=1;whiteSpace=wrap;html=1;fillColor=#b1ddf0;strokeColor=#10739e;" vertex="1" parent="1">
          <mxGeometry x="-60" y="630.5" width="180" height="60" as="geometry" />
        </mxCell>
        <mxCell id="ABK4wUut9tgNjS3H75WJ-96" value="Supplies combination of Personal Info like passport#, SSN, driver license" style="text;strokeColor=none;align=center;fillColor=none;html=1;verticalAlign=middle;whiteSpace=wrap;rounded=0;" vertex="1" parent="1">
          <mxGeometry x="-60" y="640.5" width="160" height="30" as="geometry" />
        </mxCell>
        <mxCell id="ABK4wUut9tgNjS3H75WJ-101" value="" style="shape=tape;whiteSpace=wrap;html=1;strokeWidth=2;size=0.19;fillColor=#a20025;fontColor=#ffffff;strokeColor=#6F0000;" vertex="1" parent="1">
          <mxGeometry x="465" y="655" width="130" height="77.5" as="geometry" />
        </mxCell>
        <mxCell id="ABK4wUut9tgNjS3H75WJ-102" value="Txn" style="text;strokeColor=none;align=center;fillColor=none;html=1;verticalAlign=middle;whiteSpace=wrap;rounded=0;fontColor=#FFFFFF;fontSize=19;fontStyle=1" vertex="1" parent="1">
          <mxGeometry x="500" y="678.75" width="60" height="30" as="geometry" />
        </mxCell>
        <mxCell id="ABK4wUut9tgNjS3H75WJ-104" value="" style="shape=stencil(lZzZkhzHDUW/Zl4rcl+eZfk/FCHKZJgmFRRlW38vpMfV031RfVLzNgtQlQsSuLhA1kv+4bePP/364SWF375/+/rPD//59PP3jy/5by8pffry8cO3T9/tp5f840v+4Zev3z7849vX37/8/Pr7rz8tyfXTv77+ez3hv696fRytL60U/nj9SzhK/d8f/v4q//nTl3v5eeQk8hnkh/1bn58KyMcjDZVPIJ+OqOOJE+WHPj/SePIxqsiHAfLlKDqe0EC+HsHJ03jq0YLKR5BvR8oqH1Dez5fk+1HdeEh+HNHJ0/6afU6VJ3ubR4+6v7BfMxytqP3D+Gc8YhP5CvZm8k3lRwb5pOsTzz88k69Z5DONJx2ziXwj+Xzkx/OScL9MfiSR/78DuJYvR2oi32l9yvnvUz6fDuBavp7u402+snwvIj/B3mY73dkpX3j929GryA/wD7Pr+a28nv1oQ+QnzXec7uyUb0eh8zLUv3U87yYv57Hz+o9jPq7nQH84p57HcVSWz4/jmUcge5tHySJfWb4+jj+G3QuaU9i8oYuHiEcgk5tqcqbQyIZM4dEmYjqj8jOFEVUBrW5qlIn5jGtPFR7DQCy7Ic2sCpMnPR+BSrRQSyffFGRI7cgwhxhuofFOY8JWX2nY8YFpX2kMBFzXGgPs6UrDrB6W6kJjwTqALdca832ru0LbO9+RTnT7dMuLKszNwXg0Kgsnjd8gR8/iA23fch9TFRBgzHNRbgqVI9Y8HfadwuYkZRlSQ6M1BYnRFiQSHz0BSaaAQxqKeixMdFpW+7fMYTLOG+cUb7jBgCQrZAEy8QytTyO1KCRMvQwKKJTJJ9h6plBkDgWTIw9OTGHyGyTbyYa3aNIuHcmGT2hI7XzeTaEzQGwaf02hk7Wagkx6nBj5qUJTBbRWP4fJtmQKj26mcBa5ljWqQqf46/ahROQJlsLjpEvarZK4ypIZiZqCIG/LDcj4TOHRa5TG5t3O590Ubuj66U4/HqAyGa03zeZr3G2cpNs17YZUHlep2pmm+NA04av1hMBPFSRDaRh3V8okb+jsjJvmiJURin9DCwyRm2YFzdJotiWZdEs749MhWaLIk46i0HgOVQFsG5x5VIUOnbkqU8iPTqAnttaieKlnBLymUB53utczeXlGN8zH89AtiNGJyydGvylMnkNSgnQE9kvpJORuCpHNOx5J3pAQ6s5wWs5NoTCJZgDrcacX7UgsaT9h7U3BzBGWdTRdVntEojcUN+lxurZnxLAgMpvVgEn3oRngWmjwS91RP2vv6Q3pfN5NoSAZawdSyLp1pMA0zEdI2F0BAA6QuS2lKzqmZuZJdQ4D0wGLBrLThsaJAVoBqqkCBZQa1DTmjdS9VChDawBvdMG1QtXU/S37v1YwNyMER2Ce2+CRMhwbjew4kTUo2DrDqQLi1rTBfy+s7RcWdsLyBUlq3pLBa4WoEWLldjDp5FI/Mz9KXy3Rk9RvY6+WDute97MEdK1wo67uFOiQLmJC3tBwWeNtTe4UqKgUuztCFcH0YqJkHwri+1ivXBnRRkVTP4usVDiJWQuB5l0HKaSjOgXkjKIzb+Y5F28aVCHCAYpByX4LxeSZpibUJo9RURHZYEfWFf2YfKUQd0b9O3mqLvmoPtCM6hlr7uQzeW51eQt4gNUVtdJVfoT1yZrbL1QCFpE1kBiuofGkkyG+kycaOznQ03A8UWmrwdRbVOJglYvJoBWPDK4uxZOWuwOehMGiszdOeoIr/nD1LWhlw+Qp9QzOPjMSjbda8B0ypwgb3HlJyFYFjX4jIYAMSp8ZKub1FAe32isgMt1Yozt5IgvCEavKU8rp1ycgXxjUfy55sLfg/OdOfvjnU9Q7ew/u50sx7Eya7uWptKJBda3/O+WxBHUxHgzaF/MlItKvZ8Tsw+9XxErBjVL/y/JqbxGrw1f2TGzC1Xkh/3l5HlnenXcCKEHB8bI3lBc8s+yf1z85eTzvzcujfxvvfP70551w8enN/uL6ROefNwDx3fJCd5k8+x9pLljxBc9vnSpPdFpU/triIyYmSvKbPMW75Ow5c7Z38vN3+IEqWMn5Q057krIlo2KKkZQhGkxPJmefDbOqrDT0aFjiy9pcMxpWA8oZTe7wMOGNoq0mJp+JunHj79hd5ngYyxcC+MOmzV8mX8AeXHOiyQ+iMV28mOifXR3a5AlvT83XLB+k+VrCqYl/wATPUtriMlRCWKuz5/FIWg5M9Lbl8VKGXoQ3sR2uI3DRqjSHooz7zEgirUYdx0WQW4nNMb2FJ+1q77Ni6TC6pglToEwpuSLAqtyBaaxcVRQ6xjI7bMrYdE5Wu2uVG8gWJNf4MbkZL0fFc6tRgzjSrAFq8YtgS7lqkXhDPi9S1bHVlUhV1+KzOmzAZ3tm+K2H5yn57Bh3VKhKG0x2S2Uojp3c7VIdUF7LCvtQk3ri1cNDkaRe8LzUKVK7m7RZKxVjoptDx5bCVk5DuDuiFB2ar61UhFM9av5kjoyqyr1ekKrEhvehCHIyYh5Rz/QKcVSncxcmLOYi51kdiOzoZhbn51DP5s6Blg4Lwuy3yuI9TqXae3DAhMnteYX8sds0ncZ8l+rgRYWk3NgqiFLdOmtVeZXS4cTNrD25q4JKbHhRa+2bZS26cZ35sRWVHzeub7qvqzJ8q2mC3yDtk41rN7MqRt81flTtOtq1lri6dWMW4mJIm/YY1ymya8Bxb1gtPrwPMunKTPqCU/KGTZtS1Ti9GqHIvKv2D9TEbfNNs9vKbOhq8ZEuvLnrOpKeoH1DmqD71fLGQ5JWq9VUt7n/IkPatu0J0N03BuoNm4hJ31qlR2stmypdU1qobBqhmoKTzHW3t/ruTWHbAhpcz+hmlcLjsq42Vt44gT+573rkZKdXKy73jBZ5Q90dIEn8VjsxL6uU6k0B59D1AK2WaHrDrZvsppCQYV9N17JxkTduaLtY5hu4piBnOvHtizncFb7B52EowFqFZn6D1FlXA//mVpi/IsBvkAacxR3xvYjgFNC3TnXGqzpNqzQV3a/yNAWUqexS2l56Ery0CEW+eSF85v5CiyrwnZkLBb6Wc6mAJ84pbC4XXShswMnUKsbmitSFAt/CulDgPoK37PlOgRonlmnIFb2Nb53asLzuw20u5QxVoDzO3+KJXIz3VzfXrcHNXc+gCuiMp9J2cXPb2d0TMgUEiUMz9nV7k28i6d1KpoCXbxVOgG1vuLYpDolDo/Q42dSn4UflEVEORcWdn99d3srP73p0Gt+wa1pz2LTVN+2RqbzBTW2u8gX+qsxYOYPps5xYxl+wpWMx23phnojo6Vpd844FkAw67/rp9Soe3zxKyhFvPiiQFAgnxvLR3b/m619B80huuTB594ESiuHDkegBx7Pa5vWDHcT1evYsoJce7l5WwPM1XH63ka9aYwxo/yYf3fhpvlntLSCPvCre+nxiX0bSZt6AzN9bh86dPK1/0AyE5bu73xuw5LlYQbUfwgX91p99J8+Ms/sgy+b57gM3VMA0+aLnhVpGlrxbHx5P1vXZXDvJ77GfK3mCKN3dGw4YT7vL/hig9KHMdMCW/1VRUHnif979wamtvP3w9nWrXz59/vz6caz7/+vXsOxPr1/Syj/+CQ==);lineShape=1;fontColor=#FFB570;strokeColor=#FFB570;" vertex="1" parent="1">
          <mxGeometry x="520" y="249.20999999999998" width="287.01" height="592.99" as="geometry" />
        </mxCell>
        <mxCell id="ABK4wUut9tgNjS3H75WJ-105" value="" style="shape=stencil(nVnbctw2DP2afcWQBC/gc5r+R2bi1Dt17Yzj9PL3BbulLIDao7RvaxmQcOPBAXjhD98eP319uKTw7e315deHP66f3x4v/NMlpevz48Pr9U1/XfjjhT98eXl9+OX15fvz59vfXz8NyfHrt5ffxxv+vOn1ToWHVgp/3Z4Eyv2fBz/f5J+uz04+GflESbB8NPKFYsHy3cgLtQDlq5WPkXqEChKsQqWAPRb7BQ2R4C/0ZhUKNaAQQ6BgbeJA7cQmmwWuxBUqZJvmnCggJzTsxSo0ygkotOnjlmitDKRQKTuFOnN/rJBJrA81zOI9Vkg+czVTQk5r1G3maiMGJolQsgptS+WxQqFkfWgJhlUiZfeFTB043ZoPqz5hcEIbU8xWocP6rkLVVqukWV3HCpmCrVYNw7/fPFQo3ZskbZ6pY4VMbMM6UglMyp2aWAWGpZHLfN+moKkEmR7ny0ZJC16A0yxUnIJQBE5zIbZR0lMeQKY5EQevUIFJaQHvgW2gWlOlbsO6w7Zjjezxe3wCNAjtN65hvSP6sYI2tMXrAuIaZULpToHBF7SBcFoSAcIUM2WXOZnIc6yQqCWvkAHeaxOM7BUigr7ZZTf5Nk/IMS75fqLyDNKm/3WVVCc4H2PGPI07+QQc1sPoIlpgkhUwLKyO7gJyzPNtO/kA3p98rxr4AuWjq7k0gf84wVQcfkXIk+LkODuARDRJD419v3Roz8JgpM4ucU+evTwDKAq+nlU+wve7etOWg/11tFblEQNbmMKQB/UfJ9v6wfdHzxOG/QhSPMiN+CDO6ZvNiD+038dH84vtaV5eAJ5E38u046P8xjlF7OTR+Qozejt5hvK1LfLA/uARXTbEuyPv89smAtw7L93Hs8Pz4uutzkb7w/KI0x3ZE2F8HD6Peobxz8XLC6i34GnEyXkMk0Tv5SHeOnwe9kB5Lj4+AeTr6Lygej46j2gW+u/yjnDoqIPwYWG72i8KopYTPXb9SIA9OqQ4+Qj7Oy90PcEBOS+cjyF+lsUeJoH8RBb+gPpjXQhfgXuWtvA3PV9oEF3ev43jd/hhX6cZVJ/awBzhUIBGDSbN+O0U0DpASXTJXgG5rDQ9O58F7qLixrH3rBsU6cqaVAGh7hhmFgU4YOUlzx3zUG0TyzAT0ReWTdH4AogSr9RV4Oigc+s6myQ8GSeXODxs5LgMlXXyzXvTPTuFPAnVvf2B27J0vAMpPKfaHUB2BBjLAm4wHIQY7CFVMqQ4VfyMJRo3YFLTKdRmunUY1tY8q2jKQgDKqAHB7aIypBXqYnMKW+c6VliAsnYYJe1L0fpQMfJpIUS3dWRILcYkaUGgBui0Qnu1B6hsG4h7q1bHfkuCC4qBpDasucEVyMA5GyU9g2iNM0DFrbzr3OHdU4g2Suc7crdETAXuBIdJtrwT5iQDq21T1xaDsFUVxJo0LisA8g0kdTQVuyBLZeDbFvGYcXKbs6T55LZoeX/Ah00mAL3Lo61PX2hMgFPUSIC3H21MR4YX+ZMSWuTx7ZVrhafyaZHH9vAij2/rsrcfxrN7wnOSr+X28KQe/sftJJbXH+9XoV+uT0+3m9T9//3VqT66Xbvyx78B);lineShape=1;strokeColor=#FFB570;" vertex="1" parent="1">
          <mxGeometry x="551.59" y="550" width="179.62" height="206.79" as="geometry" />
        </mxCell>
        <mxCell id="ABK4wUut9tgNjS3H75WJ-106" value="&lt;font color=&quot;#3333ff&quot; style=&quot;font-size: 14px;&quot;&gt;&lt;b&gt;Unlocks the UTXOs which means that&#39;s the seed phrase word&lt;/b&gt;&lt;/font&gt;" style="text;strokeColor=none;align=center;fillColor=none;html=1;verticalAlign=middle;whiteSpace=wrap;rounded=0;" vertex="1" parent="1">
          <mxGeometry x="450" y="615" width="170" height="30" as="geometry" />
        </mxCell>
        <mxCell id="ABK4wUut9tgNjS3H75WJ-110" value="" style="shape=singleArrow;whiteSpace=wrap;html=1;" vertex="1" parent="1">
          <mxGeometry x="300" y="610" width="130" height="40" as="geometry" />
        </mxCell>
        <mxCell id="ABK4wUut9tgNjS3H75WJ-111" value="" style="shape=tape;whiteSpace=wrap;html=1;strokeWidth=2;size=0.19;fillColor=#1ba1e2;fontColor=#ffffff;strokeColor=#006EAF;" vertex="1" parent="1">
          <mxGeometry x="-50" y="720" width="190" height="103.21" as="geometry" />
        </mxCell>
        <mxCell id="ABK4wUut9tgNjS3H75WJ-112" value="&lt;font color=&quot;#ffffff&quot; style=&quot;font-size: 14px;&quot;&gt;&lt;b style=&quot;&quot;&gt;User can now use their Encryption key and decrypt the Encrypted words unlocked&lt;/b&gt;&lt;/font&gt;" style="text;strokeColor=none;align=center;fillColor=none;html=1;verticalAlign=middle;whiteSpace=wrap;rounded=0;" vertex="1" parent="1">
          <mxGeometry x="-45" y="756.6" width="170" height="30" as="geometry" />
        </mxCell>
        <mxCell id="ABK4wUut9tgNjS3H75WJ-122" value="" style="html=1;shadow=0;dashed=0;align=center;verticalAlign=middle;shape=mxgraph.arrows2.arrow;dy=0.6;dx=40;flipH=1;notch=0;" vertex="1" parent="1">
          <mxGeometry x="310" y="732.5" width="180" height="30" as="geometry" />
        </mxCell>
        <mxCell id="ABK4wUut9tgNjS3H75WJ-123" value="" style="strokeWidth=2;html=1;shape=mxgraph.flowchart.direct_data;whiteSpace=wrap;fillColor=#fff2cc;gradientColor=#ffd966;strokeColor=#d6b656;" vertex="1" parent="1">
          <mxGeometry x="-560" y="268.27" width="180" height="78.59" as="geometry" />
        </mxCell>
        <mxCell id="ABK4wUut9tgNjS3H75WJ-124" value="" style="html=1;shadow=0;dashed=0;align=center;verticalAlign=middle;shape=mxgraph.arrows2.arrow;dy=0.6;dx=40;flipH=1;notch=0;" vertex="1" parent="1">
          <mxGeometry x="-350" y="307.96000000000004" width="190" height="28.45" as="geometry" />
        </mxCell>
        <mxCell id="ABK4wUut9tgNjS3H75WJ-125" value="&lt;b&gt;&lt;font color=&quot;#ff00ff&quot;&gt;User can store the Encrypted key on any centrliazed 2FA servers safely with recovery as this piece on its own has no meaning&lt;/font&gt;&lt;/b&gt;" style="text;strokeColor=none;align=center;fillColor=none;html=1;verticalAlign=middle;whiteSpace=wrap;rounded=0;" vertex="1" parent="1">
          <mxGeometry x="-550" y="206.41" width="180" height="30" as="geometry" />
        </mxCell>
        <mxCell id="ABK4wUut9tgNjS3H75WJ-126" value="" style="html=1;shadow=0;dashed=0;align=center;verticalAlign=middle;shape=mxgraph.arrows2.arrow;dy=0.6;dx=40;flipH=1;notch=0;" vertex="1" parent="1">
          <mxGeometry x="-350" y="221.55" width="190" height="28.45" as="geometry" />
        </mxCell>
      </root>
    </mxGraphModel>
  </diagram>
</mxfile>
